<?xml version="1.0" encoding="UTF-8" standalone="no"?>
<svg xmlns="http://www.w3.org/2000/svg" xmlns:dc="http://purl.org/dc/elements/1.1/" xmlns:cc="http://creativecommons.org/ns#" xmlns:rdf="http://www.w3.org/1999/02/22-rdf-syntax-ns#" width="680" height="432" viewBox="0 0 340 216">
  <metadata><rdf:RDF><cc:Work rdf:about="">
    <dc:format>image/svg+xml</dc:format>
    <dc:type rdf:resource="http://purl.org/dc/dcmitype/StillImage"/>
  </cc:Work></rdf:RDF></metadata>
  <rect fill="#ff0000" width="340" height="216"/>
  <rect fill="#0000ff" width="340" height="108"/>
  <path fill="#ffffff" transform="translate(170,108)scale(0.1,0.1)" d="M-193,183L-449,152C-590,135-924,95-1192,63-1461,31-1680,3-1680,0-1680-3-1461-31-1192-63-924-95-590-135-449-152L-193-183-99-621C-47-863-3-1060,0-1060C3-1060,47-863,99-621L193-183L449-152C590-135,924-95,1192-63C1461-31,1680-3,1680,0C1680,3,1461,31,1192,63C924,95,590,135,449,152L193,183L99,621C47,863,3,1060,0,1060-3,1060-47,863-99,621Z"/>
</svg>